<?xml version="1.0" standalone="no"?>
<svg xmlns="http://www.w3.org/2000/svg" viewBox="0 0 60.119 29" width="60.119" height="29"><g fill="#f50057" color="#f50057" transform="translate(0, 0) scale(0.5686275)"><svg width="48.0" height="51.0" x="0.0" y="0.0" viewBox="0 0 48 51"><path fill="currentColor" fill-rule="evenodd" d="M41.423 21.026L31.235 5.341l13.395 3.81c-.28 2.031-1.087 6.386-3.207 11.875zm-12.13 19.872V8.146l10.645 16.39c-2.3 5.042-5.679 10.729-10.646 16.362zm-3.158 3.328c-.696.692-1.387 1.384-2.135 2.065-.748-.684-1.44-1.375-2.135-2.065V3.891L24 3.283l2.135.608v40.335zm-7.427-3.328c-4.994-5.662-8.383-11.379-10.682-16.437L18.708 8.015v32.883zM3.37 9.15l13.29-3.78L6.544 20.943C4.451 15.493 3.65 11.17 3.37 9.15zM24 0L0 6.826l.077 1.268c.056.923 1.615 22.832 22.881 41.502L24 50.51l1.042-.914c21.266-18.67 22.825-40.579 22.88-41.502L48 6.826 24 0z"></path></svg></g><line x1="39.295" y1="1" x2="39.295" y2="28" stroke="#0b0cac" stroke-linecap="round"></line><path fill="#0b0cac" fill-rule="nonzero" d="M0 18L0 0L4.03 0Q7.30 0 8.78 1.27Q10.27 2.54 10.27 4.63L10.27 4.63Q10.27 5.95 9.76 6.96Q9.24 7.97 8.33 8.42L8.33 8.42Q9.48 9.02 10.15 10.02Q10.82 11.02 10.82 12.96L10.82 12.96Q10.82 18 2.88 18L2.88 18L0 18ZM3.41 7.32L4.25 7.32Q5.64 7.32 6.32 6.86Q7.01 6.41 7.01 4.99L7.01 4.99Q7.01 3.74 6.23 3.28Q5.45 2.81 4.10 2.81L4.10 2.81L3.41 2.81L3.41 7.32ZM3.53 15.19L4.18 15.19Q5.90 15.19 6.67 14.34Q7.44 13.49 7.44 12.48L7.44 12.48Q7.44 10.92 6.61 10.40Q5.78 9.89 4.30 9.89L4.30 9.89L3.53 9.89L3.53 15.19Z" transform="translate(49.295, 5.5)"></path></svg>